<svg xmlns="http://www.w3.org/2000/svg" viewBox="0 0 18 14" width="18" height="14">
	<style>
		tspan { white-space:pre }
		.shp0 { fill: none } 
		.shp1 { fill: #ffffff } 
	</style>
	<g id="Group 198">
		<path id="Rectangle 11" class="shp0" d="M-3 -5L21 -5L21 19L-3 19L-3 -5Z" />
		<g id="Group 201">
			<g id="Group 198">
				<path id="Path 8" class="shp1" d="M17 8L1 8C0.45 8 0 7.55 0 7C0 6.45 0.45 6 1 6L17 6C17.55 6 18 6.45 18 7C18 7.55 17.55 8 17 8Z" />
			</g>
			<g id="Group 199">
				<path id="Path 9" class="shp1" d="M17 14L1 14C0.45 14 0 13.55 0 13C0 12.45 0.45 12 1 12L17 12C17.55 12 18 12.45 18 13C18 13.55 17.55 14 17 14Z" />
			</g>
			<g id="Group 200">
				<path id="Path 10" class="shp1" d="M17 2L1 2C0.45 2 0 1.55 0 1C0 0.45 0.45 0 1 0L17 0C17.55 0 18 0.45 18 1C18 1.55 17.55 2 17 2Z" />
			</g>
		</g>
	</g>
</svg>