<svg xmlns="http://www.w3.org/2000/svg" viewBox="0 0 22 22" width="22" height="22">
	<style>
		tspan { white-space:pre }
		.shp0 { fill: none } 
		.shp1 { fill: #341c1d } 
	</style>
	<g id="Group 1087">
		<path id="Rectangle 10" class="shp0" d="M23 -1L23 23L-1 23L-1 -1L23 -1Z" />
		<g id="plus">
			<g id="Group 1082">
				<g id="Group 1081">
					<path id="Path 23" fill-rule="evenodd" class="shp1" d="M22 11C22 17.07 17.07 22 11 22C4.93 22 0 17.07 0 11C0 4.93 4.93 0 11 0C17.07 0 22 4.93 22 11ZM20.43 11C20.43 5.8 16.2 1.57 11 1.57C5.8 1.57 1.57 5.8 1.57 11C1.57 16.2 5.8 20.43 11 20.43C16.2 20.43 20.43 16.2 20.43 11Z" />
				</g>
			</g>
			<g id="Group 1084">
				<g id="Group 1083">
					<path id="Path 24" class="shp1" d="M11 5.76C10.57 5.76 10.21 6.11 10.21 6.55L10.21 15.45C10.21 15.89 10.57 16.24 11 16.24C11.43 16.24 11.79 15.89 11.79 15.45L11.79 6.55C11.79 6.11 11.43 5.76 11 5.76Z" />
				</g>
			</g>
			<g id="Group 1086">
				<g id="Group 1085">
					<path id="Path 25" class="shp1" d="M15.45 10.21L6.55 10.21C6.11 10.21 5.76 10.57 5.76 11C5.76 11.43 6.11 11.79 6.55 11.79L15.45 11.79C15.89 11.79 16.24 11.43 16.24 11C16.24 10.57 15.89 10.21 15.45 10.21Z" />
				</g>
			</g>
		</g>
	</g>
</svg>