<svg xmlns="http://www.w3.org/2000/svg" viewBox="0 0 16 16" width="16" height="16">
	<style>
		tspan { white-space:pre }
		.shp0 { fill: none } 
		.shp1 { fill: #341c1d } 
	</style>
	<g id="Group 202">
		<path id="Rectangle 13" class="shp0" d="M-4 -4L20 -4L20 20L-4 20L-4 -4Z" />
		<path id="Path 11" fill-rule="evenodd" class="shp1" d="M15.81 15.82C15.64 15.99 15.41 16.08 15.18 16.08C14.95 16.08 14.72 15.99 14.55 15.82L11 12.27C9.86 13.15 8.43 13.68 6.88 13.68C3.13 13.68 0.08 10.63 0.08 6.88C0.08 3.13 3.13 0.08 6.88 0.08C10.63 0.08 13.68 3.13 13.68 6.88C13.68 8.43 13.15 9.86 12.27 11L15.81 14.55C16.17 14.9 16.17 15.47 15.81 15.82ZM6.88 12.17C9.79 12.17 12.17 9.79 12.17 6.88C12.17 3.96 9.79 1.59 6.88 1.59C3.96 1.59 1.59 3.96 1.59 6.88C1.59 9.79 3.96 12.17 6.88 12.17Z" />
	</g>
</svg>